<?xml version="1.0" standalone="no"?>
<!DOCTYPE svg PUBLIC "-//W3C//DTD SVG 20010904//EN"
 "http://www.w3.org/TR/2001/REC-SVG-20010904/DTD/svg10.dtd">
<svg version="1.0" xmlns="http://www.w3.org/2000/svg"
 width="1280.000000pt" height="1280.000000pt" viewBox="0 0 1280.000000 1280.000000"
 preserveAspectRatio="xMidYMid meet">
<metadata>
</metadata>
<g transform="translate(0.000000,1280.000000) scale(0.100000,-0.100000)"
fill="#00aaff" stroke="none">
<path d="M2867 12784 c-97 -17 -206 -59 -300 -115 -84 -50 -91 -57 -1336
-1289 -493 -489 -913 -913 -937 -947 -55 -76 -116 -206 -140 -298 -29 -108
-27 -343 4 -450 31 -108 91 -227 154 -306 29 -36 428 -436 886 -889 458 -452
832 -826 830 -831 -2 -5 -174 -146 -383 -314 -1012 -815 -1236 -995 -1315
-1061 -144 -120 -241 -266 -296 -449 -25 -81 -27 -105 -27 -240 0 -134 2 -159
26 -238 48 -157 122 -280 236 -392 37 -36 320 -241 719 -520 l657 -460 5
-1625 c6 -1770 1 -1636 59 -1790 52 -138 168 -291 294 -386 72 -55 213 -124
307 -150 62 -18 180 -19 2615 -24 1403 -3 2575 -1 2605 3 87 13 234 66 308
111 37 23 175 127 307 232 132 105 542 429 910 720 1006 796 2056 1626 2182
1726 207 164 298 294 367 523 21 70 21 80 26 1765 l5 1695 528 797 c290 439
542 827 558 864 70 154 94 345 65 512 -33 190 -111 339 -250 477 -125 124
-259 198 -435 242 -60 15 -271 17 -2406 22 l-2340 6 -108 117 c-747 810 -1757
1335 -2947 1532 -85 15 -207 32 -270 39 l-115 12 -6 340 c-6 378 -8 390 -80
543 -171 367 -561 569 -962 496z"/>
</g>
</svg>
